<svg xmlns="http://www.w3.org/2000/svg" width="333" height="430" fill="none"><mask id="a" fill="#fff"><path fill-rule="evenodd" d="M332.142 179.858a.385.385 0 0 1-.385-.386v-.03C331.757 80.339 257.49 0 165.878 0S0 80.339 0 179.442a197.638 197.638 0 0 0 0 .416V401.3c0 15.663 12.697 28.36 28.36 28.36h275.806c15.663 0 28.36-12.697 28.36-28.36V180.242a.384.384 0 0 0-.384-.384Z" clip-rule="evenodd"/></mask><path fill="#38A852" fill-rule="evenodd" d="M332.142 179.858a.385.385 0 0 1-.385-.386v-.03C331.757 80.339 257.49 0 165.878 0S0 80.339 0 179.442a197.638 197.638 0 0 0 0 .416V401.3c0 15.663 12.697 28.36 28.36 28.36h275.806c15.663 0 28.36-12.697 28.36-28.36V180.242a.384.384 0 0 0-.384-.384Z" clip-rule="evenodd"/><path fill="#202124" d="m0 179.857 2.31-.005-2.31.005Zm331.757-.385h2.309-2.309Zm-2.31-.03v.03h4.619v-.03h-4.619ZM165.878 2.309c90.17 0 163.569 79.13 163.569 177.133h4.619c0-100.204-75.133-181.751-168.188-181.751v4.618ZM2.309 179.442C2.31 81.44 75.71 2.309 165.878 2.309v-4.618C72.823-2.31-2.309 79.238-2.309 179.442h4.618Zm0 .41v-.41h-4.618v.42l4.619-.01Zm0 221.448V179.858h-4.618V401.3h4.618Zm301.857 26.051H28.36v4.618h275.806v-4.618Zm26.051-247.109V401.3h4.619V180.242h-4.619Zm4.619 0a2.694 2.694 0 0 0-2.694-2.694v4.619a1.925 1.925 0 0 1-1.925-1.925h4.619Zm-30.67 251.727c16.938 0 30.67-13.731 30.67-30.669h-4.619c0 14.387-11.663 26.051-26.051 26.051v4.618ZM0 177.548c-1.139 0-2.31.902-2.31 2.31h4.62c0 1.407-1.17 2.309-2.31 2.309v-4.619Zm-2.309 2.314a2.31 2.31 0 0 1 2.31-2.314v4.619a2.31 2.31 0 0 0 2.309-2.315l-4.619.01Zm0 221.438c0 16.938 13.731 30.669 30.67 30.669v-4.618c-14.388 0-26.052-11.664-26.052-26.051h-4.618Zm331.756-221.828a2.696 2.696 0 0 0 2.695 2.695v-4.619c1.065 0 1.924.865 1.924 1.924h-4.619Z" mask="url(#a)"/><mask id="b" fill="#fff"><path fill-rule="evenodd" d="M319.411 182.769a.354.354 0 0 1-.354-.355v-.028c0-91.284-68.408-165.285-152.792-165.285-84.385 0-152.792 74-152.792 165.285V395.848c0 9.398 7.618 17.017 17.016 17.017h272.26c9.398 0 17.017-7.619 17.017-17.017V183.123a.355.355 0 0 0-.355-.354Z" clip-rule="evenodd"/></mask><path fill="#E6E8EB" fill-rule="evenodd" d="M319.411 182.769a.354.354 0 0 1-.354-.355v-.028c0-91.284-68.408-165.285-152.792-165.285-84.385 0-152.792 74-152.792 165.285V395.848c0 9.398 7.618 17.017 17.016 17.017h272.26c9.398 0 17.017-7.619 17.017-17.017V183.123a.355.355 0 0 0-.355-.354Z" clip-rule="evenodd"/><path fill="#202124" d="m13.473 182.769-2.127.004 2.127-.004Zm305.584-.355h-2.127 2.127Zm-2.127-.028v.028h4.254v-.028h-4.254ZM166.265 19.228c83.055 0 150.665 72.888 150.665 163.158h4.254c0-92.299-69.206-167.412-154.919-167.412v4.254ZM15.6 182.386c0-90.27 67.61-163.158 150.665-163.158v-4.254c-85.714 0-154.92 75.113-154.92 167.412H15.6Zm0 .378v-.378h-4.254v.387l4.254-.009Zm0 213.084V182.769h-4.254v213.079H15.6Zm287.149 14.889H30.489v4.255h272.26v-4.255Zm14.89-227.614v212.725h4.254V183.123h-4.254Zm4.254 0a2.481 2.481 0 0 0-2.482-2.481v4.254a1.772 1.772 0 0 1-1.772-1.773h4.254Zm-19.144 231.869c10.573 0 19.144-8.571 19.144-19.144h-4.254c0 8.223-6.667 14.889-14.89 14.889v4.255ZM13.473 180.642c-1.163 0-2.127.94-2.127 2.127H15.6a2.127 2.127 0 0 1-2.127 2.127v-4.254Zm-2.127 2.131a2.127 2.127 0 0 1 2.127-2.131v4.254c1.176 0 2.13-.955 2.127-2.132l-4.254.009Zm0 213.075c0 10.573 8.57 19.144 19.143 19.144v-4.255c-8.223 0-14.89-6.666-14.89-14.889h-4.253ZM316.93 182.414a2.48 2.48 0 0 0 2.481 2.482v-4.254c.982 0 1.773.796 1.773 1.772h-4.254Z" mask="url(#b)"/><path fill="#202124" d="M13.47 317.636h306.294v77.992c0 9.397-7.619 17.016-17.017 17.016H30.487c-9.398 0-17.016-7.619-17.016-17.016v-77.992Z"/><path fill="#FF5145" d="M111.717 281.229c-11.995-5.982-22.913-13.911-32.452-23.568-22.944-23.22-35.457-53.984-35.226-86.627.232-32.642 13.167-63.249 36.44-86.192 23.269-22.936 54.083-35.461 86.766-35.259 18.965.115 37.067 4.407 53.805 12.754 11.996 5.98 22.914 13.91 32.452 23.567 22.945 23.22 35.458 53.984 35.226 86.627-.228 32.636-13.173 63.246-36.439 86.192-23.27 22.936-54.083 35.461-86.766 35.259-18.965-.115-37.067-4.407-53.806-12.753ZM216.42 71.586c-15.324-7.641-31.892-11.564-49.259-11.674-29.918-.186-58.126 11.28-79.43 32.283-21.3 20.997-33.147 49.019-33.36 78.901-.212 29.881 11.243 58.044 32.253 79.302 8.734 8.843 18.735 16.102 29.71 21.575 15.319 7.638 31.893 11.564 49.253 11.671 29.919.185 58.126-11.28 79.43-32.284 21.3-20.997 33.148-49.019 33.36-78.9.212-29.882-11.242-58.044-32.253-79.303-8.733-8.843-18.735-16.102-29.71-21.574l.006.003Z"/><path fill="#202124" d="M220.569 63.293c11.787 5.877 22.651 13.724 32.177 23.359 22.744 23.017 35.153 53.516 34.921 85.873-.225 32.361-13.059 62.702-36.125 85.439-23.067 22.736-53.614 35.157-86.012 34.954-18.831-.112-36.975-4.48-53.339-12.64-11.787-5.877-22.65-13.724-32.176-23.358-22.745-23.018-35.154-53.517-34.922-85.874.225-32.361 13.059-62.702 36.125-85.438 23.067-22.737 53.614-35.158 86.012-34.955 18.832.112 36.975 4.48 53.339 12.64ZM115.866 272.936c15.255 7.606 32.168 11.677 49.726 11.787 30.203.186 58.68-11.391 80.184-32.587 21.503-21.197 33.468-49.486 33.68-79.652.213-30.166-11.353-58.598-32.557-80.056-8.876-8.985-19.008-16.301-29.995-21.78-15.255-7.606-32.168-11.678-49.726-11.787-30.203-.186-58.681 11.39-80.184 32.587-21.503 21.197-33.468 49.485-33.68 79.652-.213 30.166 11.353 58.597 32.557 80.055 8.876 8.986 19.007 16.302 29.995 21.781ZM221.521 61.392c-16.885-8.419-35.148-12.752-54.272-12.867-32.962-.199-64.042 12.431-87.517 35.573-23.473 23.137-36.528 54.016-36.757 86.937-.232 32.927 12.386 63.958 35.54 87.377 9.624 9.739 20.64 17.741 32.737 23.773 16.885 8.419 35.148 12.752 54.272 12.867 32.962.199 64.042-12.431 87.517-35.573 23.473-23.136 36.528-54.015 36.757-86.936.228-32.922-12.386-63.958-35.54-87.378-9.624-9.738-20.64-17.74-32.737-23.773ZM116.817 271.035c-10.873-5.422-20.773-12.614-29.43-21.372-20.811-21.056-32.155-48.95-31.95-78.549.207-29.6 11.943-57.353 33.044-78.157C109.582 72.154 137.52 60.8 167.156 60.98c17.196.104 33.614 3.992 48.787 11.557 10.873 5.422 20.774 12.615 29.431 21.372 20.811 21.056 32.155 48.95 31.949 78.549-.207 29.6-11.943 57.353-33.043 78.157-21.101 20.804-49.039 32.158-78.676 31.978-17.195-.103-33.614-3.992-48.787-11.557Z"/><path fill="#FFB600" d="M156.837 291.856c-3.71-1.85-7.263-4.928-10.563-9.146-4.264-5.459-8.118-12.827-11.462-21.928-12.725-2.561-24.741-6.636-35.735-12.118-6.828-3.405-13.254-7.362-19.103-11.758-11.28-8.49-20.133-18.375-26.318-29.399-6.482-11.552-9.72-23.823-9.634-36.47.087-12.646 3.5-24.878 10.137-36.349 6.335-10.948 15.327-20.729 26.729-29.072 15.41-11.285 34.476-19.305 55.167-23.206 3.469-9.052 7.43-16.38 11.767-21.784 5.914-7.367 12.448-11.083 19.398-11.038 2.97.017 5.89.736 8.68 2.127 3.709 1.85 7.263 4.928 10.563 9.146 4.263 5.46 8.118 12.828 11.461 21.928 12.726 2.562 24.741 6.637 35.735 12.119 6.829 3.405 13.261 7.364 19.104 11.758 11.282 8.483 20.133 18.375 26.317 29.398 6.476 11.55 9.721 23.823 9.634 36.47-.087 12.647-3.5 24.878-10.143 36.346-6.335 10.948-15.327 20.73-26.729 29.073-15.409 11.284-34.476 19.304-55.167 23.205-3.469 9.052-7.429 16.379-11.767 21.785-5.92 7.363-12.448 11.082-19.401 11.044-2.97-.017-5.89-.737-8.68-2.128l.01-.003Zm-10.114-29.149c4.469 10.319 9.69 17.348 14.781 19.887 1.389.692 2.765 1.046 4.093 1.051 6.281.036 13.221-7.483 19.161-20.711a163.884 163.884 0 0 1-19.022.981 165.585 165.585 0 0 1-19.01-1.214l-.003.006ZM132.224 93.784c-21.762 5.06-41.315 15.158-55.212 28.534-14.693 14.144-22.52 31.014-22.648 48.778-.187 27.266 18.218 52.782 49.248 68.255 8.534 4.255 17.785 7.617 27.524 10.003-6.11-21.698-9.357-49.243-9.158-77.849.2-28.605 3.833-56.109 10.249-77.727l-.003.006Zm11.527-2.185c-7.164 21.421-11.215 49.792-11.428 79.974-.212 30.183 3.447 58.598 10.308 80.109a152.5 152.5 0 0 0 23.175 1.913c7.787.051 15.589-.499 23.198-1.629 7.158-21.424 11.216-49.792 11.428-79.974.213-30.183-3.446-58.598-10.308-80.109a152.526 152.526 0 0 0-46.373-.284Zm57.862 2.609c6.111 21.698 9.357 49.243 9.158 77.849-.203 28.596-3.833 56.108-10.249 77.727 21.762-5.061 41.315-15.158 55.212-28.534 14.693-14.143 22.519-31.014 22.651-48.784.187-27.266-18.218-52.783-49.248-68.255-8.534-4.255-17.785-7.617-27.524-10.003Zm-30.368-33.24c-1.389-.692-2.765-1.046-4.093-1.051-6.281-.036-13.221 7.483-19.161 20.71a165.742 165.742 0 0 1 19.023-.98c6.375.036 12.76.45 19.009 1.214-4.469-10.32-9.684-17.345-14.781-19.887l.003-.006Z"/><path fill="#202124" d="M175.442 52.66c3.57 1.78 6.984 4.74 10.195 8.851 4.289 5.488 8.153 12.948 11.509 22.197 12.821 2.53 24.979 6.621 36.049 12.141 6.746 3.364 13.09 7.263 18.939 11.66 11.158 8.398 19.92 18.182 26.029 29.073 6.39 11.387 9.581 23.484 9.494 35.94-.09 12.464-3.452 24.514-10 35.824-6.262 10.818-15.159 20.489-26.434 28.752-15.606 11.424-34.629 19.308-55.325 23.127-3.486 9.21-7.446 16.617-11.816 22.054-5.701 7.1-11.953 10.68-18.563 10.638-2.819-.02-5.564-.693-8.214-2.014-3.57-1.78-6.984-4.741-10.195-8.852-4.289-5.487-8.153-12.947-11.509-22.197-12.821-2.53-24.979-6.621-36.05-12.14-6.746-3.364-13.089-7.264-18.938-11.66-11.165-8.402-19.92-18.182-26.029-29.073-6.39-11.388-9.581-23.484-9.494-35.941.09-12.463 3.452-24.514 10-35.823 6.262-10.818 15.153-20.492 26.434-28.753 15.6-11.427 34.629-19.307 55.325-23.126 3.485-9.211 7.446-16.617 11.815-22.054 5.701-7.1 11.954-10.68 18.564-10.638 2.818.02 5.564.692 8.214 2.014Zm-29.161 29.23a163.028 163.028 0 0 1 20.734-1.188c7.016.039 13.941.53 20.719 1.44-4.758-11.563-10.375-19.32-16.005-22.127-1.522-.759-3.05-1.157-4.559-1.165-7.076-.045-14.632 8.419-20.889 23.04Zm52.699 169.327c46.292-10.127 80.202-41.501 80.463-78.745.202-28.691-19.619-54.146-49.831-69.211-9.003-4.49-18.929-8.053-29.521-10.508 6.424 21.91 9.822 49.816 9.613 79.295-.209 29.48-3.997 57.341-10.724 79.169Zm-57.162 1.406a152.462 152.462 0 0 0 23.981 2.03c8.23.051 16.257-.554 24.003-1.735 7.326-21.6 11.475-50.31 11.688-80.92.212-30.61-3.535-59.371-10.555-81.056a152.583 152.583 0 0 0-23.981-2.03c-8.23-.05-16.257.554-24.003 1.735-7.325 21.601-11.475 50.311-11.688 80.921-.212 30.61 3.535 59.371 10.555 81.055Zm-38.677-12.319c9.004 4.49 18.93 8.054 29.522 10.509-6.424-21.91-9.823-49.816-9.614-79.296.209-29.479 3.997-57.34 10.724-79.168-46.291 10.127-80.202 41.501-80.463 78.745-.202 28.691 19.62 54.146 49.831 69.21Zm57.89 43.25c1.528.762 3.049 1.156 4.559 1.165 7.076.045 14.632-8.419 20.888-23.04a162.943 162.943 0 0 1-20.734 1.188 163.1 163.1 0 0 1-20.712-1.437c4.758 11.563 10.375 19.32 16.005 22.127m15.366-232.785c-2.942-1.467-6.02-2.218-9.156-2.238-7.298-.045-14.105 3.804-20.238 11.434-4.315 5.377-8.26 12.609-11.719 21.515-20.624 3.974-39.628 12.01-55.015 23.282-11.519 8.434-20.606 18.327-27.02 29.402-6.733 11.629-10.196 24.041-10.283 36.878-.087 12.837 3.2 25.281 9.767 36.995 6.254 11.154 15.21 21.152 26.606 29.725 5.9 4.437 12.38 8.428 19.271 11.865 10.906 5.438 22.816 9.5 35.418 12.087 3.334 8.946 7.17 16.226 11.414 21.659 3.395 4.345 7.073 7.524 10.921 9.443 2.942 1.467 6.021 2.218 9.156 2.238 7.298.045 14.105-3.804 20.238-11.434 4.315-5.377 8.26-12.609 11.72-21.515 20.623-3.975 39.627-12.01 55.014-23.282 11.519-8.435 20.606-18.327 27.021-29.402 6.735-11.636 10.195-24.041 10.282-36.878.094-12.833-3.199-25.281-9.767-36.995-6.254-11.154-15.203-21.149-26.606-29.725-5.899-4.437-12.379-8.428-19.271-11.865-10.905-5.438-22.816-9.5-35.418-12.087-3.334-8.946-7.176-16.229-11.414-21.659-3.395-4.345-7.072-7.524-10.921-9.443Zm-26.644 28.616c5.518-11.625 11.91-18.428 17.408-18.394 1.16.008 2.38.324 3.623.944 4.597 2.292 9.336 8.51 13.523 17.667a165.664 165.664 0 0 0-17.269-1.003 166.89 166.89 0 0 0-17.282.796l-.003-.01Zm53.381 16.31c9.013 2.333 17.592 5.518 25.536 9.48 30.656 15.285 48.845 40.441 48.658 67.296-.119 17.475-7.837 34.083-22.318 48.023-13.38 12.882-32.077 22.694-52.944 27.836 6.117-21.435 9.582-48.333 9.775-76.261.194-27.928-2.888-54.869-8.707-76.374Zm-58.569-3.127a151.475 151.475 0 0 1 22.383-1.521c7.504.044 15.021.65 22.364 1.793 6.7 21.327 10.27 49.366 10.057 79.153-.212 29.787-4.168 57.778-11.168 79.027a151.43 151.43 0 0 1-22.383 1.521 152.392 152.392 0 0 1-22.363-1.793c-6.7-21.327-10.27-49.366-10.058-79.153.213-29.787 4.169-57.778 11.168-79.027Zm-40.469 145.846c-30.656-15.286-48.845-40.442-48.658-67.296.12-17.476 7.838-34.084 22.318-48.024 13.38-12.882 32.077-22.693 52.945-27.836-6.118 21.435-9.583 48.333-9.776 76.261-.193 27.928 2.889 54.869 8.707 76.374-9.013-2.333-17.591-5.518-25.536-9.479Zm44.36 25.578c5.697.632 11.486.97 17.269 1.003 5.783.034 11.578-.228 17.282-.796-5.518 11.625-11.91 18.429-17.407 18.395-1.161-.009-2.381-.324-3.624-.944-4.597-2.292-9.336-8.51-13.523-17.667l.003.009Z"/><path fill="#FF5145" d="M111.71 281.229c-11.996-5.982-22.914-13.911-32.453-23.568-22.944-23.22-35.457-53.984-35.225-86.627.231-32.642 13.166-63.249 36.439-86.192 23.269-22.936 54.083-35.461 86.766-35.259 18.965.115 37.067 4.407 53.805 12.754 11.996 5.98 22.914 13.91 32.452 23.567 22.945 23.22 35.458 53.984 35.226 86.627-.228 32.636-13.173 63.246-36.439 86.192-23.269 22.936-54.083 35.461-86.766 35.259-18.965-.115-37.067-4.407-53.799-12.75l-.006-.003Zm-55.697-90.082c3.872 22.434 14.42 42.878 30.604 59.251 8.733 8.843 18.734 16.102 29.71 21.575 15.324 7.641 31.892 11.564 49.259 11.674 29.918.185 58.126-11.28 79.429-32.283 16.418-16.181 27.247-36.486 31.434-58.875-6.338 4.7-15.009 8.871-25.808 12.4-22.703 7.434-52.736 11.418-84.585 11.228-31.84-.194-61.821-4.543-84.415-12.255-5.421-1.848-10.348-3.877-14.66-6.026-4.31-2.15-7.886-4.345-10.974-6.692l.006.003Zm205.004-36.222c-3.906-1.947-8.373-3.787-13.268-5.451-21.566-7.358-50.378-11.512-81.133-11.703-30.756-.192-59.628 3.611-81.292 10.708-19.038 6.237-30.893 14.9-30.95 22.614-.043 5.702 6.123 11.935 17.358 17.537 3.906 1.948 8.373 3.787 13.267 5.452 21.567 7.358 50.379 11.512 81.134 11.703 30.755.191 59.628-3.612 81.291-10.709 19.036-6.23 30.894-14.9 30.952-22.613.041-5.703-6.124-11.936-17.359-17.538Zm-44.604-83.34c-15.325-7.64-31.893-11.563-49.26-11.673-29.918-.186-58.126 11.28-79.43 32.283-16.417 16.18-27.246 36.485-31.433 58.875 6.338-4.701 15.01-8.871 25.808-12.401 22.703-7.433 52.736-11.418 84.585-11.227 31.846.197 61.828 4.546 84.415 12.254 5.421 1.848 10.348 3.877 14.659 6.027 4.312 2.15 7.888 4.345 10.975 6.692-3.872-22.434-14.414-42.875-30.603-59.251-8.733-8.843-18.735-16.103-29.71-21.575l-.006-.003Z"/><path fill="#202124" d="M220.564 63.293c11.787 5.877 22.65 13.724 32.176 23.359 22.745 23.017 35.154 53.516 34.922 85.873-.225 32.361-13.059 62.702-36.125 85.439-23.067 22.736-53.614 35.157-86.012 34.954-18.832-.112-36.975-4.48-53.339-12.64-11.787-5.877-22.65-13.724-32.177-23.358-22.744-23.018-35.153-53.517-34.921-85.874.225-32.361 13.059-62.702 36.125-85.438 23.067-22.737 53.614-35.158 86.011-34.955 18.832.112 36.976 4.48 53.34 12.64ZM54.772 153.63c.393-.327.796-.657 1.21-.98 6.313-4.919 15.21-9.286 26.449-12.968 22.593-7.401 52.511-11.364 84.243-11.176 31.729.193 61.593 4.524 84.079 12.197 5.399 1.845 10.249 3.836 14.529 5.97 4.584 2.286 8.509 4.734 11.739 7.318.412.332.808.664 1.198.993-3.472-23.548-14.287-45.312-31.335-62.568-8.882-8.989-19.007-16.302-29.995-21.78-15.255-7.607-32.168-11.678-49.726-11.788-30.203-.185-58.68 11.39-80.184 32.588-17.296 17.048-28.407 38.677-32.21 62.184m16.478 35.964c3.912 1.95 8.398 3.799 13.397 5.508 21.675 7.396 50.61 11.572 81.477 11.763 30.866.191 59.859-3.631 81.627-10.763 19.784-6.475 31.626-15.302 31.684-23.617.045-6.2-6.466-12.772-17.949-18.497-3.912-1.951-8.398-3.799-13.397-5.509-21.675-7.395-50.61-11.571-81.476-11.762-30.866-.192-59.859 3.631-81.628 10.763-19.783 6.474-31.625 15.302-31.683 23.617-.045 6.2 6.466 12.771 17.948 18.497Zm-3.792 7.307c-4.584-2.285-8.509-4.733-11.74-7.317a73.243 73.243 0 0 1-1.198-.994c3.473 23.549 14.288 45.313 31.336 62.569 8.882 8.989 19.007 16.302 29.995 21.78 15.255 7.607 32.168 11.678 49.725 11.788 30.204.185 58.681-11.391 80.185-32.588 17.296-17.048 28.407-38.677 32.21-62.184-.393.326-.795.656-1.211.979-6.312 4.919-15.209 9.286-26.448 12.968-22.593 7.402-52.511 11.364-84.24 11.17-31.729-.193-61.593-4.524-84.079-12.197-5.399-1.845-10.25-3.836-14.529-5.97M221.51 61.389c-16.884-8.419-35.148-12.752-54.272-12.867-32.961-.199-64.041 12.43-87.517 35.573-23.472 23.136-36.528 54.016-36.756 86.937-.232 32.927 12.386 63.957 35.54 87.377 9.623 9.739 20.64 17.741 32.737 23.773 16.884 8.419 35.148 12.752 54.271 12.867 32.962.199 64.042-12.431 87.518-35.573 23.472-23.136 36.527-54.016 36.756-86.937.229-32.921-12.386-63.957-35.54-87.377-9.624-9.738-20.64-17.74-32.737-23.773ZM57.854 148.675c4.475-21.146 14.993-40.323 30.615-55.72 21.101-20.805 49.039-32.159 78.675-31.98 17.196.105 33.615 3.993 48.787 11.558 10.874 5.422 20.774 12.614 29.431 21.372 15.409 15.592 25.654 34.886 29.833 56.088-2.653-1.821-5.652-3.57-8.974-5.227-4.35-2.168-9.33-4.216-14.792-6.077-22.702-7.749-52.801-12.118-84.751-12.311-31.957-.197-62.114 3.813-84.919 11.275-9.71 3.177-17.735 6.879-23.918 11.016l.013.006Zm14.35 39.011c-10.695-5.333-16.807-11.373-16.775-16.582.052-7.241 11.63-15.527 30.219-21.609 21.559-7.062 50.311-10.846 80.959-10.661 30.647.185 59.341 4.321 80.797 11.647 4.854 1.652 9.273 3.475 13.134 5.401 10.696 5.333 16.808 11.373 16.776 16.582-.052 7.241-11.63 15.527-30.219 21.608-21.559 7.063-50.311 10.847-80.958 10.662-30.648-.185-59.342-4.321-80.798-11.647-4.854-1.652-9.273-3.475-13.134-5.401Zm-5.694 11.109c4.35 2.169 9.323 4.214 14.792 6.078 22.695 7.746 52.8 12.117 84.757 12.314 31.957.197 62.114-3.813 84.919-11.275 9.711-3.177 17.735-6.879 23.918-11.016-4.476 21.146-14.994 40.323-30.616 55.721-21.1 20.804-49.038 32.158-78.675 31.978-17.195-.103-33.614-3.992-48.787-11.557-10.873-5.422-20.773-12.614-29.43-21.372-15.41-15.592-25.654-34.886-29.834-56.088 2.654 1.821 5.652 3.57 8.975 5.227l-.02-.01Z"/><path fill="#4289FF" d="M133.469 286.203a80.8 80.8 0 0 1-4.327-2.323c-10.956-6.318-20.741-15.29-29.084-26.669-16.946-23.094-26.149-53.632-25.923-85.991.225-32.36 9.862-62.789 27.123-85.672 8.504-11.275 18.415-20.123 29.457-26.31 11.569-6.477 23.86-9.729 36.522-9.653 11.064.07 21.855 2.68 32.056 7.767a81.32 81.32 0 0 1 4.327 2.324c10.956 6.317 20.741 15.29 29.084 26.669 16.945 23.094 26.148 53.632 25.923 85.991-.225 32.359-9.863 62.788-27.124 85.671-8.503 11.276-18.414 20.124-29.457 26.31-11.568 6.477-23.859 9.729-36.521 9.654-11.064-.071-21.855-2.681-32.056-7.768ZM194.721 66.63c-8.819-4.398-18.092-6.654-27.555-6.71-21.776-.132-42.383 11.346-58.011 32.328-15.708 21.077-24.467 49.15-24.676 79.04-.332 47.054 21.199 89.509 53.565 105.647 8.813 4.395 18.085 6.651 27.555 6.71 45.162.275 82.256-49.679 82.693-111.364.332-47.054-21.199-89.51-53.565-105.648l-.006-.003Z"/><path fill="#202124" d="M198.821 58.312a79.321 79.321 0 0 1 4.27 2.295c10.826 6.245 20.504 15.115 28.764 26.375 16.809 22.907 25.942 53.22 25.717 85.358-.225 32.137-9.786 62.335-26.911 85.041-8.418 11.152-18.221 19.911-29.131 26.021-11.407 6.392-23.52 9.59-35.992 9.514-10.921-.071-21.525-2.643-31.587-7.66a79.269 79.269 0 0 1-4.27-2.295c-10.825-6.245-20.503-15.116-28.763-26.375-16.81-22.907-25.943-53.22-25.717-85.358.225-32.138 9.786-62.335 26.911-85.041 8.418-11.152 18.221-19.911 29.13-26.021 11.407-6.392 23.521-9.59 35.992-9.514 10.922.07 21.526 2.643 31.587 7.66Zm-61.252 219.573c8.743 4.36 18.181 6.762 28.027 6.827 45.746.281 83.324-50.152 83.759-112.417.341-48.862-22.29-90.718-54.155-106.606-8.743-4.36-18.18-6.762-28.027-6.827-45.746-.281-83.324 50.152-83.758 112.417-.342 48.862 22.289 90.718 54.154 106.606Zm62.21-221.47c-10.353-5.163-21.297-7.818-32.522-7.882-12.852-.075-25.315 3.218-37.048 9.788-11.173 6.255-21.191 15.208-29.784 26.597-17.4 23.068-27.114 53.712-27.342 86.299-.229 32.587 9.05 63.353 26.126 86.631 8.435 11.496 18.331 20.563 29.413 26.96a84.628 84.628 0 0 0 4.384 2.352c10.354 5.162 21.297 7.817 32.523 7.881 12.852.075 25.314-3.218 37.048-9.788 11.172-6.255 21.187-15.202 29.783-26.597 17.4-23.067 27.114-53.712 27.342-86.299.229-32.587-9.05-63.353-26.126-86.63-8.434-11.497-18.331-20.564-29.413-26.96a84 84 0 0 0-4.384-2.353Zm-61.258 219.57c-32.018-15.965-53.304-58.037-52.98-104.698.429-61.097 37.04-110.58 81.619-110.31 9.305.056 18.422 2.275 27.089 6.596 32.017 15.965 53.304 58.037 52.979 104.699-.428 61.096-37.04 110.578-81.619 110.309-9.304-.056-18.422-2.275-27.088-6.596Z"/><path fill="#fff" d="M69.397 362.068c-.079-11.212 9.283-20.417 20.531-20.503a19.353 19.353 0 0 1 14 5.501l-3.919 3.955a14.185 14.185 0 0 0-10.047-3.896c-8.192.064-14.548 6.699-14.497 14.893.057 8.198 6.49 14.733 14.695 14.675 5.317-.042 8.325-2.194 10.252-4.144 1.576-1.6 2.601-3.898 2.984-7l-13.31.1-.034-5.576 18.721-.144c.215 1.15.326 2.32.32 3.488.031 4.167-1.075 9.336-4.732 13.04-3.56 3.734-8.115 5.731-14.164 5.774-11.248.086-20.727-8.954-20.8-20.163ZM124.307 376.849c-3.972.029-7.415-3.218-7.45-7.882-.028-4.661 3.37-7.963 7.343-7.991 3.972-.029 7.414 3.17 7.45 7.882.035 4.711-3.374 7.968-7.346 7.997m-.136-21.037c-7.251.053-13.123 5.607-13.071 13.197.052 7.59 5.995 13.039 13.239 12.982 7.25-.053 13.116-5.658 13.071-13.197-.052-7.542-5.995-13.039-13.245-12.985l.006.003ZM153.012 376.644c-3.972.029-7.415-3.218-7.45-7.882-.028-4.661 3.37-7.963 7.343-7.991 3.972-.029 7.415 3.17 7.45 7.882.035 4.711-3.373 7.968-7.346 7.997m-.136-21.037c-7.25.053-13.123 5.607-13.071 13.197.052 7.59 5.995 13.039 13.245 12.985 7.251-.053 13.116-5.658 13.071-13.197-.051-7.542-5.994-13.039-13.239-12.982l-.006-.003ZM203.218 342.16l-5.78.043.256 38.494 5.781-.044-.257-38.493Z"/><path fill="#fff" d="m203.218 342.16-5.78.043.256 38.494 5.781-.044-.257-38.493ZM218.68 360.207c2.283-.017 4.226 1.108 4.882 2.745l-11.686 4.947c-.183-5.058 3.872-7.665 6.798-7.695m.556 15.971c-2.93.02-5.021-1.302-6.382-3.923l17.481-7.377-.6-1.477c-1.115-2.919-4.469-8.302-11.279-8.248-6.8.051-12.324 5.403-12.272 13.189.045 7.343 5.649 13.054 13.096 13.001a13.06 13.06 0 0 0 10.884-5.892l-4.488-2.941c-1.489 2.185-3.511 3.648-6.44 3.668ZM181.651 376.443c-3.972.029-7.32-3.267-7.353-7.836-.03-4.559 3.277-8.014 7.249-8.043 3.972-.028 7.004 3.319 7.032 7.932.034 4.617-3.016 7.913-6.94 7.941m6.462-20.296.016 2.131h-.197c-1.301-1.539-3.793-2.897-6.918-2.877-6.556.05-12.523 5.849-12.471 13.242.046 7.39 6.095 12.993 12.645 12.939 3.126-.019 5.602-1.429 6.88-3.031h.196l.01 1.884c.033 5.009-2.625 7.707-6.93 7.741-3.522.025-5.722-2.489-6.622-4.597l-5 2.12a12.474 12.474 0 0 0 11.686 7.666c6.752-.05 12.436-4.058 12.371-13.737l-.153-23.522-5.507.044-.006-.003Z"/><path fill="#4289FF" d="m254.565 341.785-19.401.146.258 38.7 19.401-.146-.258-38.7ZM279.234 340.954c-11.058.084-19.969 9.105-19.899 20.155.074 11.045 9.097 19.937 20.162 19.856 11.058-.083 19.969-9.104 19.898-20.155-.073-11.044-9.097-19.936-20.161-19.856Z"/><path fill="#fff" d="m41.1 371.052-6.492.048.78-4.656 6.439-.051.927-6.653-6.547.046.676-4.652 6.492-.049 1.5-10.277 4.976-.04-1.499 10.278 6.873-.055 1.445-10.28 5.031-.037-1.499 10.278 6.493-.049-.676 4.652-6.438.051-.927 6.653 6.546-.046-.723 4.652-6.492.049-1.553 10.763-5.03.037 1.602-10.77-6.926.052-1.5 10.765-4.976.04 1.498-10.765v.016Zm12.578-4.69.979-6.762-6.98.05-.98 6.762 6.98-.05Z"/></svg>