<svg width="480" height="480" fill="none" xmlns="http://www.w3.org/2000/svg"><path d="M299.5 416c80.357 0 145.5-65.143 145.5-145.5S379.857 125 299.5 125 154 190.143 154 270.5 219.143 416 299.5 416z" fill="#4285F4"/><mask id="a" maskUnits="userSpaceOnUse" x="154" y="125" width="291" height="291"><path d="M299.5 416c80.357 0 145.5-65.143 145.5-145.5S379.857 125 299.5 125 154 190.143 154 270.5 219.143 416 299.5 416z" fill="#4285F4"/></mask><g mask="url(#a)"><path d="M256 155.08l.18 13.76.09 2.159c.27 2.158.989 3.777 2.068 4.946l.27.27.27.269.09.09c.09.09.18.18.36.27l.089.09c.09.09.27.18.36.18 0 0 .09 0 .09.09.09.09.27.09.45.18h.09c.18.09.27.09.449.18h.09c.18 0 .36.09.54.09 1.799.359 3.957-.09 6.295-1.439l42.988-24.552h.09l23.652-13.49 4.947-2.878 2.878-1.619c-18.077-6.655-37.862-9.712-58.367-8.363A136.706 136.706 0 00256 130.079v25.001z" fill="#2F7EF2"/><path d="M327.733 283.878c-7.474 0-14.578-.738-21.129-2.03-14.116-2.86-25.557-8.673-33.03-16.699-8.212-8.858-11.349-19.929-8.858-32.201 4.706-23.342 26.111-47.054 63.662-70.305 27.587-17.161 54.251-27.771 54.436-27.863 1.938-.738 4.06.184 4.798 2.03.738 1.845-.185 4.059-2.03 4.797-1.015.369-103.428 41.519-113.669 92.725-4.613 23.251 15.685 35.983 36.167 40.227 6.182 1.292 12.825 1.938 19.837 1.938 48.9 0 113.761-32.108 131.015-113.854a3.723 3.723 0 014.336-2.86 3.723 3.723 0 012.86 4.337c-18.084 85.99-86.635 119.758-138.395 119.758zM375.987 476.156c-.369 0-.646-.092-1.015-.185-41.427-15.684-58.68-45.117-65.784-67.168-8.95-27.494-6.643-59.787 5.628-78.608 15.039-22.882 48.623-34.322 100.014-33.953 37.828.276 71.781 7.196 72.058 7.288 1.476.277 2.491 1.753 2.122 3.23-.277 1.476-1.753 2.491-3.229 2.122-1.292-.277-132.953-26.757-166.352 24.265-9.319 14.301-14.947 43.549-5.075 73.903 6.828 20.852 23.159 48.808 62.463 63.662 1.476.554 2.122 2.122 1.568 3.599-.276 1.199-1.291 1.845-2.398 1.845zM269.791 456.78h-.277a3.635 3.635 0 01-3.321-3.967c3.69-43.548-24.173-65.876-48.808-85.621-11.625-9.318-22.604-18.083-28.786-28.232-13.563-21.959-11.902-43.641 5.074-67.999 5.721-8.211 11.626-14.762 16.885-20.482 13.747-15.132 24.634-27.126 24.911-60.618.646-79.162 4.244-121.419 4.244-121.788.185-2.03 1.938-3.598 3.967-3.414a3.637 3.637 0 013.322 3.968c0 .461-3.506 42.441-4.244 121.327-.277 36.259-12.64 49.822-26.849 65.507-5.351 5.905-10.795 11.902-16.238 19.744-15.316 21.959-16.885 40.412-4.89 59.88 5.535 9.041 16.054 17.437 27.125 26.295 24.727 19.836 55.543 44.471 51.483 91.987-.092 1.937-1.66 3.413-3.598 3.413z" fill="#D7EFFE"/></g><path d="M254.844 346.802a16.916 16.916 0 01-11.256-4.244c-3.414-3.045-5.536-7.197-5.812-11.81-.646-9.411 6.55-17.622 15.961-18.268 9.411-.646 17.623 6.551 18.269 15.962.276 4.613-1.2 9.041-4.245 12.455-3.044 3.414-7.196 5.536-11.809 5.813-.277.092-.646.092-1.108.092zm.093-26.941h-.646c-5.351.369-9.503 5.075-9.134 10.426.184 2.583 1.384 4.982 3.321 6.735 1.938 1.753 4.521 2.584 7.105 2.399 2.583-.185 4.982-1.384 6.735-3.321 1.753-1.938 2.583-4.521 2.399-7.105-.369-5.167-4.706-9.134-9.78-9.134z" fill="#D7EFFE"/><path fill-rule="evenodd" clip-rule="evenodd" d="M374.936 109c.002.014.006.028.007.042-.005-1.714-1.101-3.447-3.275-4.803a11.603 11.603 0 00-.469-.278l-13.075-7.381-4.181-2.36-17.511-9.877v.002L302.431 65.17a10.172 10.172 0 00-.517-.273c-.052-.027-.104-.05-.155-.076a10.23 10.23 0 00-.363-.165l-.163-.068a8.796 8.796 0 00-.369-.142l-.132-.047a7.374 7.374 0 00-1.521-.355c-1.521-.181-2.842.214-3.829 1.108l-.016.015c-.079.073-.157.15-.232.228l-.015.015-.012.014a4.269 4.269 0 00-.147.166c-.029.033-.057.069-.086.104-.035.044-.071.088-.105.134a5.298 5.298 0 00-.187.265l-.021.035c-.058.09-.113.183-.166.278l-.032.059a5.844 5.844 0 00-.149.294l-.018.037c-.11.237-.209.488-.293.754l-.002.005c-.04.126-.077.257-.112.389l-.011.047a8.06 8.06 0 00-.093.406l-.002.013a7.662 7.662 0 00-.076.451l-.003.022c-.012.083-.02.17-.029.254 0 0-.102 1.044-.101 1.205l.002.514.053 47.817.02 18.38.148 10.626.1 1.647c.175 1.645.728 2.939 1.574 3.835l.235.227.03.028v-.004c.072.064.148.126.224.184.027.02.052.042.079.061.084.062.171.119.259.174.028.019.057.038.086.055h.001c.091.055.185.105.282.153l.078.04a4.816 4.816 0 00.375.157c.114.042.23.078.348.11l.043.013a4.364 4.364 0 00.403.088c1.402.244 3.063-.097 4.839-1.116l33.108-18.924h.069l18.232-10.422 3.817-2.182.008-.005 4.341-2.484 9.032-5.165c1.229-.702 2.15-1.516 2.764-2.383.583-.825.886-1.699.913-2.577.002-.046.006-.094.006-.14-.001.013-.004.025-.006.037l-.001-.085z" fill="#3DDC84"/><path d="M75.366 206.443c-11.89 12.072-15.516 59.463-15.516 59.463s47.463-4.495 59.352-16.551c11.89-12.072 11.701-31.453-.394-43.305-12.094-11.852-31.552-11.679-43.442.393z" fill="#F86734"/><path d="M91.954 141.305l29.991.676 32.136-32.616-32.467.424c-1.719-.032-3.39.629-4.588 1.855l-26.27 26.674c-1.104 1.1-.347 2.955 1.198 2.987zM185.981 235.192l-1.23-29.881 32.31-32.6v32.349a6.203 6.203 0 01-1.782 4.605l-26.27 26.675c-1.088 1.116-2.965.393-3.028-1.148z" fill="#66DB7B"/><path d="M251.688 78.95c0-2.626-2.176-4.748-4.81-4.7l-53.864.895a10.11 10.11 0 00-8.09 2.971L83.786 180.602c-3.895 3.961-3.847 10.327.126 14.209l49.639 48.571c3.974 3.882 10.36 3.835 14.255-.126l101.138-102.485a9.995 9.995 0 002.823-8.111l-.079-53.71z" fill="#EFF7CF"/><circle cx="112.884" cy="341.223" fill="#F6DA00" r="9.052"/><circle cx="43.052" cy="187.788" fill="#F6DA00" r="9.052"/><circle cx="54.562" cy="316.652" fill="#F6DA00" r="4.526"/></svg>